<?xml version="1.0" encoding="UTF-8" standalone="no"?>
<svg
   xmlns:dc="http://purl.org/dc/elements/1.1/"
   xmlns:cc="http://creativecommons.org/ns#"
   xmlns:rdf="http://www.w3.org/1999/02/22-rdf-syntax-ns#"
   xmlns:svg="http://www.w3.org/2000/svg"
   xmlns="http://www.w3.org/2000/svg"
   xmlns:sodipodi="http://sodipodi.sourceforge.net/DTD/sodipodi-0.dtd"
   xmlns:inkscape="http://www.inkscape.org/namespaces/inkscape"
   width="99"
   height="23"
   viewBox="0 0 99 23"
   fill="none"
   version="1.1"
   id="svg847"
   sodipodi:docname="logo-new.svg"
   inkscape:version="0.92.3 (2405546, 2018-03-11)">
  <metadata
     id="metadata853">
    <rdf:RDF>
      <cc:Work
         rdf:about="">
        <dc:format>image/svg+xml</dc:format>
        <dc:type
           rdf:resource="http://purl.org/dc/dcmitype/StillImage" />
      </cc:Work>
    </rdf:RDF>
  </metadata>
  <defs
     id="defs851">
    <style
       id="style3797"
       type="text/css">
   
    .fil0 {fill:black}
   
  </style>
    <style
       type="text/css"
       id="style3797-5">
   
    .fil0 {fill:black}
   
  </style>
  </defs>
  <sodipodi:namedview
     pagecolor="#ffffff"
     bordercolor="#666666"
     borderopacity="1"
     objecttolerance="10"
     gridtolerance="10"
     guidetolerance="10"
     inkscape:pageopacity="0"
     inkscape:pageshadow="2"
     inkscape:window-width="1920"
     inkscape:window-height="1017"
     id="namedview849"
     showgrid="false"
     inkscape:zoom="5.7373737"
     inkscape:cx="51.736626"
     inkscape:cy="33.788468"
     inkscape:window-x="-8"
     inkscape:window-y="-8"
     inkscape:window-maximized="1"
     inkscape:current-layer="svg847" />
  <path
     d="M26.5859 9.94531C26.5859 10.3255 26.513 10.6823 26.3672 11.0156C26.2266 11.349 26.0312 11.6406 25.7812 11.8906C25.5312 12.1406 25.237 12.3385 24.8984 12.4844C24.5651 12.625 24.2083 12.6953 23.8281 12.6953H21.2891V17H20.2812V5.79688H23.8281C24.2083 5.79688 24.5651 5.86979 24.8984 6.01562C25.237 6.15625 25.5312 6.35156 25.7812 6.60156C26.0312 6.85156 26.2266 7.14583 26.3672 7.48438C26.513 7.81771 26.5859 8.17448 26.5859 8.55469V9.94531ZM25.5781 8.55469C25.5781 8.30469 25.5312 8.07292 25.4375 7.85938C25.3438 7.64062 25.2135 7.45052 25.0469 7.28906C24.8854 7.1224 24.6953 6.99219 24.4766 6.89844C24.263 6.80469 24.0312 6.75781 23.7812 6.75781H21.2891V11.7344H23.7812C24.0312 11.7344 24.263 11.6875 24.4766 11.5938C24.6953 11.5 24.8854 11.3724 25.0469 11.2109C25.2135 11.0495 25.3438 10.862 25.4375 10.6484C25.5312 10.4297 25.5781 10.1953 25.5781 9.94531V8.55469ZM34.6562 14.4062C34.6562 14.7865 34.5833 15.1432 34.4375 15.4766C34.2969 15.8099 34.1016 16.1016 33.8516 16.3516C33.6016 16.6016 33.3099 16.7995 32.9766 16.9453C32.6432 17.0859 32.2865 17.1562 31.9062 17.1562H31.1094C30.7292 17.1562 30.3698 17.0859 30.0312 16.9453C29.6979 16.7995 29.4062 16.6016 29.1562 16.3516C28.9062 16.1016 28.7083 15.8099 28.5625 15.4766C28.4219 15.1432 28.3516 14.7865 28.3516 14.4062V5.79688H29.3594V14.4062C29.3594 14.6562 29.4062 14.8906 29.5 15.1094C29.5938 15.3229 29.7214 15.513 29.8828 15.6797C30.0495 15.8411 30.2396 15.9688 30.4531 16.0625C30.6719 16.1562 30.9062 16.2031 31.1562 16.2031H31.8594C32.1094 16.2031 32.3411 16.1562 32.5547 16.0625C32.7734 15.9688 32.9635 15.8411 33.125 15.6797C33.2865 15.513 33.4141 15.3229 33.5078 15.1094C33.6016 14.8906 33.6484 14.6562 33.6484 14.4062V5.79688H34.6562V14.4062ZM42.3281 17L39.2891 12.2188H37.9062V17H36.8984V5.79688H40.4531C40.8333 5.79688 41.1901 5.86979 41.5234 6.01562C41.8568 6.15625 42.1484 6.35156 42.3984 6.60156C42.6484 6.85156 42.8438 7.14583 42.9844 7.48438C43.1302 7.81771 43.2031 8.17448 43.2031 8.55469V9.46094C43.2031 9.84115 43.1302 10.2005 42.9844 10.5391C42.8438 10.8724 42.6484 11.1641 42.3984 11.4141C42.1484 11.6641 41.8568 11.862 41.5234 12.0078C41.1901 12.1484 40.8333 12.2188 40.4531 12.2188L43.4922 17H42.3281ZM42.1953 8.55469C42.1953 8.30469 42.1484 8.07292 42.0547 7.85938C41.9609 7.64062 41.8333 7.45052 41.6719 7.28906C41.5104 7.1224 41.3203 6.99219 41.1016 6.89844C40.888 6.80469 40.6562 6.75781 40.4062 6.75781H37.9062V11.2578H40.4062C40.6562 11.2578 40.888 11.2109 41.1016 11.1172C41.3203 11.0234 41.5104 10.8958 41.6719 10.7344C41.8333 10.5677 41.9609 10.3776 42.0547 10.1641C42.1484 9.94531 42.1953 9.71094 42.1953 9.46094V8.55469ZM45.4219 17V5.79688H51.7266V6.75781H46.4297V10.9219H50.7188V11.8828H46.4297V16.0391H51.7266V17H45.4219ZM53.4922 17V5.79688H54.5V16.0391H58.7891V17H53.4922ZM66.5312 14.4062C66.5312 14.7865 66.4583 15.1432 66.3125 15.4766C66.1719 15.8099 65.9766 16.1016 65.7266 16.3516C65.4766 16.6016 65.1849 16.7995 64.8516 16.9453C64.5182 17.0859 64.1615 17.1562 63.7812 17.1562H62.9844C62.6042 17.1562 62.2448 17.0859 61.9062 16.9453C61.5729 16.7995 61.2812 16.6016 61.0312 16.3516C60.7812 16.1016 60.5833 15.8099 60.4375 15.4766C60.2969 15.1432 60.2266 14.7865 60.2266 14.4062V8.39062C60.2266 8.01042 60.2969 7.65365 60.4375 7.32031C60.5833 6.98698 60.7812 6.69531 61.0312 6.44531C61.2812 6.19531 61.5729 6 61.9062 5.85938C62.2448 5.71354 62.6042 5.64062 62.9844 5.64062H63.7812C64.1615 5.64062 64.5182 5.71354 64.8516 5.85938C65.1849 6 65.4766 6.19531 65.7266 6.44531C65.9766 6.69531 66.1719 6.98698 66.3125 7.32031C66.4583 7.65365 66.5312 8.01042 66.5312 8.39062V14.4062ZM65.5234 8.39062C65.5234 8.14062 65.4766 7.90885 65.3828 7.69531C65.2891 7.47656 65.1615 7.28646 65 7.125C64.8385 6.96354 64.6484 6.83594 64.4297 6.74219C64.2161 6.64844 63.9844 6.60156 63.7344 6.60156H63.0312C62.7812 6.60156 62.5469 6.64844 62.3281 6.74219C62.1146 6.83594 61.9245 6.96354 61.7578 7.125C61.5964 7.28646 61.4688 7.47656 61.375 7.69531C61.2812 7.90885 61.2344 8.14062 61.2344 8.39062V14.4062C61.2344 14.6562 61.2812 14.8906 61.375 15.1094C61.4688 15.3229 61.5964 15.513 61.7578 15.6797C61.9245 15.8411 62.1146 15.9688 62.3281 16.0625C62.5469 16.1562 62.7812 16.2031 63.0312 16.2031H63.7344C63.9844 16.2031 64.2161 16.1562 64.4297 16.0625C64.6484 15.9688 64.8385 15.8411 65 15.6797C65.1615 15.513 65.2891 15.3229 65.3828 15.1094C65.4766 14.8906 65.5234 14.6562 65.5234 14.4062V8.39062ZM75.0781 14.4062C75.0781 14.7865 75.0052 15.1432 74.8594 15.4766C74.7188 15.8099 74.5234 16.1016 74.2734 16.3516C74.0234 16.6016 73.7318 16.7995 73.3984 16.9453C73.0651 17.0859 72.7083 17.1562 72.3281 17.1562H71.5312C71.151 17.1562 70.7917 17.0859 70.4531 16.9453C70.1198 16.7995 69.8281 16.6016 69.5781 16.3516C69.3281 16.1016 69.1302 15.8099 68.9844 15.4766C68.8438 15.1432 68.7734 14.7865 68.7734 14.4062V8.39062C68.7734 8.01042 68.8438 7.65365 68.9844 7.32031C69.1302 6.98698 69.3281 6.69531 69.5781 6.44531C69.8281 6.19531 70.1198 6 70.4531 5.85938C70.7917 5.71354 71.151 5.64062 71.5312 5.64062H72.3281C72.7083 5.64062 73.0651 5.71354 73.3984 5.85938C73.7318 6 74.0234 6.19531 74.2734 6.44531C74.5234 6.69531 74.7188 6.98698 74.8594 7.32031C75.0052 7.65365 75.0781 8.01042 75.0781 8.39062V8.84375L74.0703 9V8.39062C74.0703 8.14062 74.0234 7.90885 73.9297 7.69531C73.8359 7.47656 73.7083 7.28646 73.5469 7.125C73.3854 6.96354 73.1953 6.83594 72.9766 6.74219C72.763 6.64844 72.5312 6.60156 72.2812 6.60156H71.5781C71.3281 6.60156 71.0938 6.64844 70.875 6.74219C70.6615 6.83594 70.4714 6.96354 70.3047 7.125C70.1432 7.28646 70.0156 7.47656 69.9219 7.69531C69.8281 7.90885 69.7812 8.14062 69.7812 8.39062V14.4062C69.7812 14.6562 69.8281 14.8906 69.9219 15.1094C70.0156 15.3229 70.1432 15.513 70.3047 15.6797C70.4714 15.8411 70.6615 15.9688 70.875 16.0625C71.0938 16.1562 71.3281 16.2031 71.5781 16.2031H72.2812C72.5312 16.2031 72.763 16.1562 72.9766 16.0625C73.1953 15.9688 73.3854 15.8411 73.5469 15.6797C73.7083 15.513 73.8359 15.3229 73.9297 15.1094C74.0234 14.8906 74.0703 14.6562 74.0703 14.4062V13.7969L75.0781 13.9609V14.4062ZM81.5312 14.3906H77.9844L77.25 17H76.2031L79.4844 5.79688H80.0156L83.3125 17H82.2734L81.5312 14.3906ZM78.2578 13.4297H81.2656L79.7891 8.26562L79.7578 7.85156L79.7266 8.26562L78.2578 13.4297ZM86.9844 6.75781V17H85.9766V6.75781H83.3047V5.79688H89.6562V6.75781H86.9844ZM91.2656 17V5.79688H97.5703V6.75781H92.2734V10.9219H96.5625V11.8828H92.2734V16.0391H97.5703V17H91.2656Z"
     fill="black"
     id="path845" />
  <g
     transform="matrix(0.04874002,0,0,0.04874002,-6.3156303,21.590148)"
     id="layer1"
     inkscape:label="Layer 1">
    <g
       transform="matrix(2.6259999,0,0,2.6259999,876.72377,-252.04901)"
       id="g5030">
      <path
         style="clip-rule:evenodd;fill:#61c2e2;fill-opacity:1;fill-rule:evenodd;stroke-width:0.80815327;image-rendering:optimizeQuality;shape-rendering:geometricPrecision;text-rendering:geometricPrecision"
         d="m -217.12082,-70.775185 c -22.58755,-0.69844 -44.5734,10.65534 -56.51889,31.345583 -2.05924,3.56653 -3.55101,6.96505 -4.84405,10.31308 a 13.853547,29.191773 0 0 0 -0.032,0.064 13.853547,29.191773 0 0 0 -3.89087,18.95423 13.853547,29.191773 0 0 0 0,0.016 13.853547,29.191773 0 0 0 -0.016,0.4848401 c 0,0 0.016,0.016 0.016,0.016 a 1.8282318,3.1095567 0 0 0 -0.10961,0.84381 c -0.005,0.008 -0.008,0.024 -0.016,0.032 v 0.23441 a 1.8282318,3.1095567 0 0 0 0,0.21842 v 8.48488997 h 0.032 V 91.643018 h 0.064 v 12.813232 h 0.08 c 0.04,1.6533 1.53689,2.23693 3.00018,0.64084 0,0 18.51236,-24.761052 58.62838,-43.549432 18.83318,-8.96524 45.86252,-19.7117 57.55024,-39.95545 13.64584,-23.6352999 9.18646,-52.52395 -8.60986,-71.488483 -0.97446,-1.07487 -2.08428,-2.03485 -3.14082,-3.04706 -0.47123,-0.43603 -0.91925,-0.89005 -1.40632,-1.31264 -3.20019,-2.88145 -6.62247,-5.58953 -10.50062,-7.82854 -9.62336,-5.55608 -20.01589,-8.37057 -30.28297,-8.68802 z m -0.93757,42.783773 c 3.31315,0.22161 6.64799,1.18175 9.79746,3.00017 10.49821,6.06116 14.35851,20.4097601 8.29736,30.9080501 -2.63424,4.5625899 -6.87264,7.7652599 -11.64132,9.5474399 -5.4288,1.22519 -11.27218,0.62244 -16.54785,-2.42206 -10.73302,-6.1968399 -14.27427,-20.9241799 -7.79733,-32.14252 1.29375,-2.24085 2.96505,-4.05728 4.78156,-5.67217 2.97769,-1.78794 6.32564,-2.92049 9.81305,-3.20331 1.0899,-0.088 2.19269,-0.0824 3.29707,-0.016 z"
         id="path3801"
         inkscape:connector-curvature="0" />
      <flowRoot
         xml:space="preserve"
         id="flowRoot4314"
         style="font-style:normal;font-weight:normal;font-size:12px;line-height:1.25;font-family:sans-serif;letter-spacing:0px;word-spacing:0px;fill:#000000;fill-opacity:1;stroke:none"
         transform="translate(15.796898,48.897584)"><flowRegion
           id="flowRegion4316"><rect
             id="rect4318"
             width="119.14749"
             height="45.078056"
             x="2.2980971"
             y="13.277129" /></flowRegion><flowPara
           id="flowPara4320" /></flowRoot>    </g>
  </g>
</svg>
